<svg xmlns="http://www.w3.org/2000/svg" viewBox="0 0 32 32" role="img" aria-label="Librarian's Challenge">
  <path fill="#d9a441" d="M2 2h18c3.2 0 5.8 2.3 5.8 5.2V30c-2.5-1.7-5.4-2.5-8.5-2.5H2V2z"/>
  <path fill="#8a5a2b" d="M4 4h2.2v22.1H4z"/>
  <clipPath id="cover">
    <path d="M6.2 4h13.6c2.1 0 3.8 1.5 3.8 3.4V26.5c-2-1.2-4.2-1.8-6.6-1.8H6.2V4z"/>
  </clipPath>
  <g clip-path="url(#cover)">
    <rect x="6.2" y="4" width="18" height="3.8" fill="#e40303"/>
    <rect x="6.2" y="7.8" width="18" height="3.8" fill="#ff8c00"/>
    <rect x="6.2" y="11.6" width="18" height="3.8" fill="#ffed00"/>
    <rect x="6.2" y="15.4" width="18" height="3.8" fill="#008026"/>
    <rect x="6.2" y="19.2" width="18" height="3.8" fill="#24408e"/>
    <rect x="6.2" y="23" width="18" height="4.2" fill="#732982"/>
  </g>
</svg>
